<mxfile host="app.diagrams.net" modified="2022-10-09T20:51:27.556Z" agent="5.0 (Macintosh; Intel Mac OS X 10_15_7) AppleWebKit/605.1.15 (KHTML, like Gecko) Version/14.1.2 Safari/605.1.15" etag="TxUCZFsgIPAHhELRFIPD" version="20.4.0" type="github">
  <diagram name="Page-1" id="c4acf3e9-155e-7222-9cf6-157b1a14988f">
    <mxGraphModel dx="1911" dy="989" grid="1" gridSize="10" guides="1" tooltips="1" connect="1" arrows="1" fold="1" page="1" pageScale="1" pageWidth="850" pageHeight="1100" background="none" math="0" shadow="0">
      <root>
        <mxCell id="0" />
        <mxCell id="1" parent="0" />
        <mxCell id="17acba5748e5396b-1" value="Data Model" style="shape=umlFrame;whiteSpace=wrap;html=1;rounded=0;shadow=0;comic=0;labelBackgroundColor=none;strokeWidth=1;fontFamily=Verdana;fontSize=10;align=center;width=80;height=30;" parent="1" vertex="1">
          <mxGeometry x="70" y="30" width="820" height="1060" as="geometry" />
        </mxCell>
        <mxCell id="5d2195bd80daf111-9" value="&lt;p style=&quot;margin:0px;margin-top:4px;text-align:center;&quot;&gt;&lt;b&gt;Product&lt;/b&gt;&lt;/p&gt;&lt;hr size=&quot;1&quot;&gt;&lt;p style=&quot;margin:0px;margin-left:4px;&quot;&gt;+ ProductId&lt;br&gt;&lt;br&gt;&lt;/p&gt;" style="verticalAlign=top;align=left;overflow=fill;fontSize=12;fontFamily=Helvetica;html=1;rounded=0;shadow=0;comic=0;labelBackgroundColor=none;strokeWidth=1" parent="1" vertex="1">
          <mxGeometry x="290" y="890" width="190" height="50" as="geometry" />
        </mxCell>
        <mxCell id="5d2195bd80daf111-10" value="&lt;p style=&quot;margin:0px;margin-top:4px;text-align:center;&quot;&gt;&lt;b&gt;Asset&lt;/b&gt;&lt;/p&gt;&lt;hr size=&quot;1&quot;&gt;&lt;p style=&quot;margin:0px;margin-left:4px;&quot;&gt;+ Id&lt;br&gt;&lt;br&gt;&lt;/p&gt;" style="verticalAlign=top;align=left;overflow=fill;fontSize=12;fontFamily=Helvetica;html=1;rounded=0;shadow=0;comic=0;labelBackgroundColor=none;strokeWidth=1" parent="1" vertex="1">
          <mxGeometry x="630" y="324" width="150" height="58" as="geometry" />
        </mxCell>
        <mxCell id="se9fdDCBuE6_rZ36mQUB-9" style="edgeStyle=orthogonalEdgeStyle;rounded=0;orthogonalLoop=1;jettySize=auto;html=1;exitX=0.75;exitY=0;exitDx=0;exitDy=0;entryX=0;entryY=0.5;entryDx=0;entryDy=0;strokeColor=default;startFill=1;endFill=0;anchorPointDirection=1;enumerate=0;noJump=0;metaEdit=0;endArrow=baseDash;" edge="1" parent="1" source="5d2195bd80daf111-11" target="5d2195bd80daf111-19">
          <mxGeometry relative="1" as="geometry" />
        </mxCell>
        <mxCell id="se9fdDCBuE6_rZ36mQUB-10" value="LeadId" style="edgeLabel;html=1;align=center;verticalAlign=middle;resizable=0;points=[];" vertex="1" connectable="0" parent="se9fdDCBuE6_rZ36mQUB-9">
          <mxGeometry x="-0.2008" y="-2" relative="1" as="geometry">
            <mxPoint as="offset" />
          </mxGeometry>
        </mxCell>
        <mxCell id="5d2195bd80daf111-11" value="&lt;p style=&quot;margin:0px;margin-top:4px;text-align:center;&quot;&gt;&lt;b&gt;Lead&lt;/b&gt;&lt;/p&gt;&lt;hr size=&quot;1&quot;&gt;&lt;p style=&quot;margin:0px;margin-left:4px;&quot;&gt;+ Id&lt;br&gt;+ LeadId&lt;/p&gt;&lt;p style=&quot;margin:0px;margin-left:4px;&quot;&gt;+ OwnerId&lt;/p&gt;&lt;p style=&quot;margin:0px;margin-left:4px;&quot;&gt;+ ConvertedAccountId&lt;/p&gt;&lt;p style=&quot;margin:0px;margin-left:4px;&quot;&gt;+ ConvertedContactId&lt;/p&gt;&lt;p style=&quot;margin:0px;margin-left:4px;&quot;&gt;+ ConvertedOpportunityId&lt;/p&gt;&lt;p style=&quot;margin:0px;margin-left:4px;&quot;&gt;+ CampaignId&lt;/p&gt;&lt;p style=&quot;margin:0px;margin-left:4px;&quot;&gt;+ RecordTypeId&lt;/p&gt;" style="verticalAlign=top;align=left;overflow=fill;fontSize=12;fontFamily=Helvetica;html=1;rounded=0;shadow=0;comic=0;labelBackgroundColor=none;strokeWidth=1" parent="1" vertex="1">
          <mxGeometry x="90" y="290" width="190" height="146" as="geometry" />
        </mxCell>
        <mxCell id="se9fdDCBuE6_rZ36mQUB-25" style="edgeStyle=orthogonalEdgeStyle;rounded=0;orthogonalLoop=1;jettySize=auto;html=1;exitX=1;exitY=0.5;exitDx=0;exitDy=0;strokeColor=default;startFill=1;endFill=0;endArrow=ERzeroToMany;" edge="1" parent="1" source="5d2195bd80daf111-12" target="5d2195bd80daf111-20">
          <mxGeometry relative="1" as="geometry" />
        </mxCell>
        <mxCell id="se9fdDCBuE6_rZ36mQUB-26" value="OpportunityId" style="edgeLabel;html=1;align=center;verticalAlign=middle;resizable=0;points=[];" vertex="1" connectable="0" parent="se9fdDCBuE6_rZ36mQUB-25">
          <mxGeometry x="-0.0368" relative="1" as="geometry">
            <mxPoint as="offset" />
          </mxGeometry>
        </mxCell>
        <mxCell id="se9fdDCBuE6_rZ36mQUB-28" value="OpportunityId" style="edgeStyle=orthogonalEdgeStyle;rounded=0;orthogonalLoop=1;jettySize=auto;html=1;exitX=0.5;exitY=1;exitDx=0;exitDy=0;entryX=0.5;entryY=0;entryDx=0;entryDy=0;strokeColor=default;startFill=1;endArrow=baseDash;endFill=0;" edge="1" parent="1" source="5d2195bd80daf111-12" target="se9fdDCBuE6_rZ36mQUB-1">
          <mxGeometry relative="1" as="geometry" />
        </mxCell>
        <mxCell id="5d2195bd80daf111-12" value="&lt;p style=&quot;margin:0px;margin-top:4px;text-align:center;&quot;&gt;&lt;b&gt;Opportunity&lt;/b&gt;&lt;/p&gt;&lt;hr size=&quot;1&quot;&gt;&lt;p style=&quot;margin:0px;margin-left:4px;&quot;&gt;+ Id&lt;br&gt;+ AccountId&lt;/p&gt;&lt;p style=&quot;margin:0px;margin-left:4px;&quot;&gt;+ ContractId&lt;/p&gt;&lt;p style=&quot;margin:0px;margin-left:4px;&quot;&gt;+ Pricebook2Id&lt;/p&gt;&lt;p style=&quot;margin:0px;margin-left:4px;&quot;&gt;+ OwnerId&lt;/p&gt;&lt;p style=&quot;margin:0px;margin-left:4px;&quot;&gt;+ RecordTypeId&lt;/p&gt;&lt;p style=&quot;margin:0px;margin-left:4px;&quot;&gt;+ StageName&lt;/p&gt;" style="verticalAlign=top;align=left;overflow=fill;fontSize=12;fontFamily=Helvetica;html=1;rounded=0;shadow=0;comic=0;labelBackgroundColor=none;strokeWidth=1" parent="1" vertex="1">
          <mxGeometry x="290" y="570" width="190" height="140" as="geometry" />
        </mxCell>
        <mxCell id="se9fdDCBuE6_rZ36mQUB-13" value="AssetId" style="edgeStyle=none;rounded=0;orthogonalLoop=1;jettySize=auto;html=1;entryX=0.5;entryY=1;entryDx=0;entryDy=0;strokeColor=default;startFill=1;endFill=0;endArrow=ERzeroToMany;exitX=0.5;exitY=0;exitDx=0;exitDy=0;" edge="1" parent="1" source="5d2195bd80daf111-10" target="5d2195bd80daf111-15">
          <mxGeometry relative="1" as="geometry" />
        </mxCell>
        <mxCell id="5d2195bd80daf111-15" value="&lt;p style=&quot;margin:0px;margin-top:4px;text-align:center;&quot;&gt;&lt;b&gt;Case&lt;/b&gt;&lt;/p&gt;&lt;hr size=&quot;1&quot;&gt;&lt;p style=&quot;margin:0px;margin-left:4px;&quot;&gt;+ Id&lt;br&gt;+ ContactId&lt;/p&gt;&lt;p style=&quot;margin:0px;margin-left:4px;&quot;&gt;+ OwnerId&lt;br&gt;+ AccountId&lt;/p&gt;&lt;p style=&quot;margin:0px;margin-left:4px;&quot;&gt;+ RecordTypeId&lt;/p&gt;" style="verticalAlign=top;align=left;overflow=fill;fontSize=12;fontFamily=Helvetica;html=1;rounded=0;shadow=0;comic=0;labelBackgroundColor=none;strokeWidth=1" parent="1" vertex="1">
          <mxGeometry x="610" y="80" width="190" height="110" as="geometry" />
        </mxCell>
        <mxCell id="se9fdDCBuE6_rZ36mQUB-14" style="edgeStyle=orthogonalEdgeStyle;rounded=0;orthogonalLoop=1;jettySize=auto;html=1;exitX=1;exitY=0.5;exitDx=0;exitDy=0;entryX=0.25;entryY=1;entryDx=0;entryDy=0;strokeColor=default;startFill=1;endFill=0;endArrow=ERzeroToMany;" edge="1" parent="1" source="5d2195bd80daf111-18" target="5d2195bd80daf111-15">
          <mxGeometry relative="1" as="geometry">
            <Array as="points">
              <mxPoint x="560" y="353" />
              <mxPoint x="560" y="220" />
              <mxPoint x="657" y="220" />
            </Array>
          </mxGeometry>
        </mxCell>
        <mxCell id="se9fdDCBuE6_rZ36mQUB-17" value="AccountId" style="edgeLabel;html=1;align=center;verticalAlign=middle;resizable=0;points=[];" vertex="1" connectable="0" parent="se9fdDCBuE6_rZ36mQUB-14">
          <mxGeometry x="-0.1238" y="-2" relative="1" as="geometry">
            <mxPoint y="24" as="offset" />
          </mxGeometry>
        </mxCell>
        <mxCell id="se9fdDCBuE6_rZ36mQUB-18" style="edgeStyle=orthogonalEdgeStyle;rounded=0;orthogonalLoop=1;jettySize=auto;html=1;exitX=0.25;exitY=0;exitDx=0;exitDy=0;entryX=0.5;entryY=1;entryDx=0;entryDy=0;strokeColor=default;startFill=1;endFill=0;endArrow=ERzeroToMany;" edge="1" parent="1" source="5d2195bd80daf111-18" target="5d2195bd80daf111-19">
          <mxGeometry relative="1" as="geometry" />
        </mxCell>
        <mxCell id="se9fdDCBuE6_rZ36mQUB-19" value="AccountId" style="edgeLabel;html=1;align=center;verticalAlign=middle;resizable=0;points=[];" vertex="1" connectable="0" parent="se9fdDCBuE6_rZ36mQUB-18">
          <mxGeometry x="-0.3972" y="1" relative="1" as="geometry">
            <mxPoint as="offset" />
          </mxGeometry>
        </mxCell>
        <mxCell id="se9fdDCBuE6_rZ36mQUB-20" value="AccountId" style="edgeStyle=orthogonalEdgeStyle;rounded=0;orthogonalLoop=1;jettySize=auto;html=1;exitX=0.25;exitY=1;exitDx=0;exitDy=0;strokeColor=default;startFill=1;endFill=0;endArrow=ERzeroToMany;" edge="1" parent="1" source="5d2195bd80daf111-18" target="5d2195bd80daf111-12">
          <mxGeometry relative="1" as="geometry" />
        </mxCell>
        <mxCell id="se9fdDCBuE6_rZ36mQUB-23" value="AccountId" style="edgeStyle=orthogonalEdgeStyle;rounded=0;orthogonalLoop=1;jettySize=auto;html=1;exitX=1;exitY=0.75;exitDx=0;exitDy=0;entryX=0.25;entryY=1;entryDx=0;entryDy=0;strokeColor=default;startFill=1;endFill=0;endArrow=ERzeroToMany;" edge="1" parent="1" source="5d2195bd80daf111-18" target="5d2195bd80daf111-10">
          <mxGeometry relative="1" as="geometry" />
        </mxCell>
        <mxCell id="se9fdDCBuE6_rZ36mQUB-31" style="edgeStyle=orthogonalEdgeStyle;rounded=0;orthogonalLoop=1;jettySize=auto;html=1;exitX=0.75;exitY=1;exitDx=0;exitDy=0;entryX=0.5;entryY=0;entryDx=0;entryDy=0;strokeColor=default;startFill=1;endArrow=ERmany;endFill=0;" edge="1" parent="1" source="5d2195bd80daf111-18" target="5d2195bd80daf111-20">
          <mxGeometry relative="1" as="geometry" />
        </mxCell>
        <mxCell id="se9fdDCBuE6_rZ36mQUB-32" value="AccountId" style="edgeLabel;html=1;align=center;verticalAlign=middle;resizable=0;points=[];" vertex="1" connectable="0" parent="se9fdDCBuE6_rZ36mQUB-31">
          <mxGeometry x="0.1055" y="-4" relative="1" as="geometry">
            <mxPoint as="offset" />
          </mxGeometry>
        </mxCell>
        <mxCell id="5d2195bd80daf111-18" value="&lt;p style=&quot;margin:0px;margin-top:4px;text-align:center;&quot;&gt;&lt;b&gt;Account&lt;/b&gt;&lt;/p&gt;&lt;hr size=&quot;1&quot;&gt;&lt;p style=&quot;margin:0px;margin-left:4px;&quot;&gt;+ Id&lt;br&gt;+ ParentId&lt;/p&gt;&lt;p style=&quot;margin:0px;margin-left:4px;&quot;&gt;+ OwnerId&lt;br&gt;+ RecordTypeId&lt;/p&gt;" style="verticalAlign=top;align=left;overflow=fill;fontSize=12;fontFamily=Helvetica;html=1;rounded=0;shadow=0;comic=0;labelBackgroundColor=none;strokeWidth=1" parent="1" vertex="1">
          <mxGeometry x="360" y="306.5" width="170" height="93.5" as="geometry" />
        </mxCell>
        <mxCell id="se9fdDCBuE6_rZ36mQUB-11" value="" style="edgeStyle=none;rounded=0;orthogonalLoop=1;jettySize=auto;html=1;strokeColor=default;startFill=1;endFill=0;entryX=-0.014;entryY=0.583;entryDx=0;entryDy=0;entryPerimeter=0;endArrow=ERzeroToMany;" edge="1" parent="1" source="5d2195bd80daf111-19" target="5d2195bd80daf111-15">
          <mxGeometry relative="1" as="geometry" />
        </mxCell>
        <mxCell id="se9fdDCBuE6_rZ36mQUB-12" value="ContactId" style="edgeLabel;html=1;align=center;verticalAlign=middle;resizable=0;points=[];" vertex="1" connectable="0" parent="se9fdDCBuE6_rZ36mQUB-11">
          <mxGeometry x="-0.2021" y="1" relative="1" as="geometry">
            <mxPoint as="offset" />
          </mxGeometry>
        </mxCell>
        <mxCell id="se9fdDCBuE6_rZ36mQUB-22" value="ContactId" style="edgeStyle=orthogonalEdgeStyle;rounded=0;orthogonalLoop=1;jettySize=auto;html=1;exitX=0;exitY=1;exitDx=0;exitDy=0;entryX=0.25;entryY=0;entryDx=0;entryDy=0;strokeColor=default;startFill=1;endFill=0;endArrow=ERzeroToMany;" edge="1" parent="1" source="5d2195bd80daf111-19" target="5d2195bd80daf111-12">
          <mxGeometry relative="1" as="geometry" />
        </mxCell>
        <mxCell id="se9fdDCBuE6_rZ36mQUB-33" style="edgeStyle=elbowEdgeStyle;rounded=0;orthogonalLoop=1;jettySize=auto;html=1;exitX=1;exitY=0.75;exitDx=0;exitDy=0;entryX=0.25;entryY=0;entryDx=0;entryDy=0;strokeColor=default;startFill=1;endArrow=ERzeroToMany;endFill=0;elbow=vertical;jumpStyle=arc;" edge="1" parent="1" source="5d2195bd80daf111-19" target="5d2195bd80daf111-10">
          <mxGeometry relative="1" as="geometry">
            <Array as="points">
              <mxPoint x="520" y="240" />
              <mxPoint x="620" y="230" />
            </Array>
          </mxGeometry>
        </mxCell>
        <mxCell id="se9fdDCBuE6_rZ36mQUB-34" value="AssetId" style="edgeLabel;html=1;align=center;verticalAlign=middle;resizable=0;points=[];" vertex="1" connectable="0" parent="se9fdDCBuE6_rZ36mQUB-33">
          <mxGeometry x="-0.3544" y="1" relative="1" as="geometry">
            <mxPoint as="offset" />
          </mxGeometry>
        </mxCell>
        <mxCell id="5d2195bd80daf111-19" value="&lt;p style=&quot;margin:0px;margin-top:4px;text-align:center;&quot;&gt;&lt;b&gt;Contact&lt;/b&gt;&lt;/p&gt;&lt;hr size=&quot;1&quot;&gt;&lt;p style=&quot;margin:0px;margin-left:4px;&quot;&gt;+ Id&lt;br&gt;+ AccountId&lt;/p&gt;&lt;p style=&quot;margin:0px;margin-left:4px;&quot;&gt;+ ReportsTold&lt;/p&gt;&lt;p style=&quot;margin:0px;margin-left:4px;&quot;&gt;+ OwnerId&lt;/p&gt;&lt;p style=&quot;margin:0px;margin-left:4px;&quot;&gt;+RecordTypeId&lt;/p&gt;" style="verticalAlign=top;align=left;overflow=fill;fontSize=12;fontFamily=Helvetica;html=1;rounded=0;shadow=0;comic=0;labelBackgroundColor=none;strokeWidth=1" parent="1" vertex="1">
          <mxGeometry x="290" y="90" width="180" height="110" as="geometry" />
        </mxCell>
        <mxCell id="5d2195bd80daf111-20" value="&lt;p style=&quot;margin:0px;margin-top:4px;text-align:center;&quot;&gt;&lt;b&gt;Quote&lt;/b&gt;&lt;/p&gt;&lt;hr size=&quot;1&quot;&gt;&lt;p style=&quot;margin:0px;margin-left:4px;&quot;&gt;+ Id&lt;br&gt;+ ContractId&lt;/p&gt;&lt;p style=&quot;margin:0px;margin-left:4px;&quot;&gt;+ OpportunityId&lt;/p&gt;" style="verticalAlign=top;align=left;overflow=fill;fontSize=12;fontFamily=Helvetica;html=1;rounded=0;shadow=0;comic=0;labelBackgroundColor=none;strokeWidth=1" parent="1" vertex="1">
          <mxGeometry x="600" y="600" width="190" height="80" as="geometry" />
        </mxCell>
        <mxCell id="se9fdDCBuE6_rZ36mQUB-27" value="ProductId" style="edgeStyle=orthogonalEdgeStyle;rounded=0;orthogonalLoop=1;jettySize=auto;html=1;exitX=0.5;exitY=1;exitDx=0;exitDy=0;entryX=0.5;entryY=0;entryDx=0;entryDy=0;strokeColor=default;startFill=1;endArrow=baseDash;endFill=0;" edge="1" parent="1" source="se9fdDCBuE6_rZ36mQUB-1" target="5d2195bd80daf111-9">
          <mxGeometry relative="1" as="geometry" />
        </mxCell>
        <mxCell id="se9fdDCBuE6_rZ36mQUB-29" style="edgeStyle=orthogonalEdgeStyle;rounded=0;orthogonalLoop=1;jettySize=auto;html=1;exitX=1;exitY=0.5;exitDx=0;exitDy=0;entryX=0.5;entryY=1;entryDx=0;entryDy=0;strokeColor=default;startFill=1;endArrow=baseDash;endFill=0;" edge="1" parent="1" source="se9fdDCBuE6_rZ36mQUB-1" target="5d2195bd80daf111-20">
          <mxGeometry relative="1" as="geometry" />
        </mxCell>
        <mxCell id="se9fdDCBuE6_rZ36mQUB-30" value="PricebookId" style="edgeLabel;html=1;align=center;verticalAlign=middle;resizable=0;points=[];" vertex="1" connectable="0" parent="se9fdDCBuE6_rZ36mQUB-29">
          <mxGeometry x="0.0087" relative="1" as="geometry">
            <mxPoint as="offset" />
          </mxGeometry>
        </mxCell>
        <mxCell id="se9fdDCBuE6_rZ36mQUB-1" value="&lt;p style=&quot;margin:0px;margin-top:4px;text-align:center;&quot;&gt;&lt;b&gt;PriceBook&lt;/b&gt;&lt;/p&gt;&lt;hr size=&quot;1&quot;&gt;&lt;p style=&quot;margin:0px;margin-left:4px;&quot;&gt;+ Id&lt;br&gt;+ PricebookId&lt;/p&gt;&lt;p style=&quot;margin:0px;margin-left:4px;&quot;&gt;+ ProductId&lt;/p&gt;" style="verticalAlign=top;align=left;overflow=fill;fontSize=12;fontFamily=Helvetica;html=1;rounded=0;shadow=0;comic=0;labelBackgroundColor=none;strokeWidth=1" vertex="1" parent="1">
          <mxGeometry x="290" y="770" width="190" height="80" as="geometry" />
        </mxCell>
        <mxCell id="se9fdDCBuE6_rZ36mQUB-2" value="&lt;p style=&quot;margin:0px;margin-top:4px;text-align:center;&quot;&gt;&lt;b&gt;Article&lt;/b&gt;&lt;/p&gt;&lt;hr size=&quot;1&quot;&gt;&lt;p style=&quot;margin:0px;margin-left:4px;&quot;&gt;+ Id&lt;br&gt;+ ContactId&lt;/p&gt;&lt;p style=&quot;margin:0px;margin-left:4px;&quot;&gt;+ OwnerId&lt;br&gt;+ AccountId&lt;/p&gt;&lt;p style=&quot;margin:0px;margin-left:4px;&quot;&gt;+ RecordTypeId&lt;/p&gt;" style="verticalAlign=top;align=left;overflow=fill;fontSize=12;fontFamily=Helvetica;html=1;rounded=0;shadow=0;comic=0;labelBackgroundColor=none;strokeWidth=1" vertex="1" parent="1">
          <mxGeometry x="630" y="860" width="190" height="110" as="geometry" />
        </mxCell>
      </root>
    </mxGraphModel>
  </diagram>
</mxfile>
